<svg width="90" height="90" viewBox="0 0 90 90" fill="none" xmlns="http://www.w3.org/2000/svg">
<path d="M2.90599 2.90599C6.78063 -0.968662 13.0627 -0.968662 16.9373 2.90599L87.094 73.0627C90.9687 76.9373 90.9687 83.2194 87.094 87.094C83.2194 90.9687 76.9373 90.9687 73.0627 87.094L2.90598 16.9373C-0.968662 13.0627 -0.968661 6.78063 2.90599 2.90599Z" fill="black"/>
<path d="M2.90599 87.094C-0.968661 83.2194 -0.968661 76.9373 2.90599 73.0627L73.0627 2.90598C76.9373 -0.968662 83.2194 -0.96866 87.094 2.90599C90.9687 6.78063 90.9687 13.0627 87.094 16.9373L16.9373 87.094C13.0627 90.9687 6.78063 90.9687 2.90599 87.094Z" fill="black"/>
</svg>
